<?xml version="1.0" standalone="no"?>
<!DOCTYPE svg PUBLIC "-//W3C//DTD SVG 20010904//EN"
 "http://www.w3.org/TR/2001/REC-SVG-20010904/DTD/svg10.dtd">
<svg version="1.0" xmlns="http://www.w3.org/2000/svg"
 width="1024.000000pt" height="1024.000000pt" viewBox="0 0 1024.000000 1024.000000"
 preserveAspectRatio="xMidYMid meet">

<g transform="translate(0.000000,1024.000000) scale(0.100000,-0.100000)"
fill="#FFFFFF" stroke="none">
<path d="M2361 7420 c-76 -16 -138 -67 -179 -145 -39 -75 -38 -171 3 -244 16
-30 47 -67 67 -84 l38 -30 0 -1780 0 -1779 -46 -41 c-125 -110 -127 -305 -3
-410 75 -64 177 -83 268 -48 74 28 117 66 151 134 54 108 35 223 -52 310 l-48
48 0 1783 0 1782 51 53 50 52 702 -4 c770 -4 748 -2 915 -67 573 -221 833
-891 562 -1445 -157 -321 -462 -550 -797 -598 l-84 -13 277 -364 c153 -201
343 -450 423 -555 79 -104 179 -235 221 -290 42 -55 120 -157 174 -227 l97
-128 -158 0 -158 1 -105 136 c-144 187 -133 173 -534 688 -197 253 -404 520
-460 592 l-101 133 -100 -1 c-55 -1 -180 -1 -277 0 l-178 1 0 790 0 790 123 0
c67 0 273 1 457 1 332 1 336 1 406 -23 139 -48 235 -133 299 -263 95 -192 54
-419 -104 -568 -68 -63 -144 -107 -223 -128 -42 -12 -47 -11 -69 10 -66 63
-178 86 -267 57 -194 -65 -247 -321 -95 -456 113 -99 277 -91 377 20 20 23 42
52 48 66 7 15 20 24 33 24 36 0 146 39 215 77 193 105 335 285 391 499 27 103
29 261 5 359 -30 118 -105 261 -181 343 -105 114 -202 177 -352 229 l-78 28
-633 3 -632 3 2 -1843 3 -1843 138 -3 137 -3 0 776 0 775 213 0 212 -1 45 -62
c25 -34 141 -186 259 -337 229 -293 519 -667 715 -920 66 -85 133 -172 149
-192 l30 -38 222 0 221 0 52 -50 c226 -218 580 61 419 331 -40 67 -109 116
-176 125 -33 4 -52 13 -60 27 -8 11 -151 201 -319 421 -168 221 -379 497 -469
614 l-163 214 68 35 c164 87 354 251 467 405 112 151 206 372 241 568 49 264
3 583 -117 823 -135 267 -326 461 -586 591 -105 53 -212 90 -338 119 -85 19
-132 20 -800 24 l-710 4 -39 41 c-66 69 -160 97 -255 78z"/>
<path d="M7710 7389 c-98 -44 -160 -138 -160 -244 l0 -60 -171 -195 c-156
-177 -569 -652 -744 -855 -38 -44 -161 -185 -273 -313 l-203 -231 -157 181
c-86 99 -193 222 -237 273 -330 381 -420 484 -423 481 -1 -2 6 -37 18 -77 26
-98 50 -257 50 -344 l0 -70 118 -136 c64 -75 200 -232 301 -350 228 -265 322
-369 331 -369 4 0 88 93 186 207 99 114 264 304 367 422 221 252 440 505 593
682 270 311 356 409 365 414 5 4 9 -649 9 -1744 l0 -1751 -120 0 -120 0 -1 73
c0 39 0 679 1 1420 0 794 -3 1348 -8 1345 -8 -3 -113 -124 -528 -608 -82 -96
-233 -271 -334 -389 -102 -118 -215 -250 -252 -295 l-68 -80 -87 -1 -86 0
-230 265 c-126 146 -282 325 -346 399 -64 74 -121 140 -126 148 -8 11 -17 -7
-38 -74 -36 -113 -101 -251 -172 -359 l-55 -85 0 -458 0 -458 138 -183 137
-184 5 678 5 678 97 -113 c53 -63 164 -193 247 -289 146 -170 150 -176 151
-221 0 -100 66 -206 153 -248 53 -26 166 -29 220 -6 93 39 157 130 165 235 l5
68 246 285 c135 157 296 344 356 415 61 72 113 131 118 131 4 1 7 -530 7
-1179 l0 -1180 195 0 c178 0 196 -2 201 -17 39 -124 150 -213 264 -213 54 0
127 30 175 72 125 110 129 288 8 404 l-53 51 0 1783 0 1782 44 39 c153 135
106 387 -84 454 -60 21 -146 19 -200 -6z"/>
</g>
</svg>
